<svg width="14" height="12" viewBox="0 0 14 12" fill="none" xmlns="http://www.w3.org/2000/svg">
<path d="M0 0.5625C0 0.250781 0.250785 0 0.562509 0H1.62893C2.14457 0 2.60161 0.3 2.81489 0.75H12.4479C13.0643 0.75 13.5143 1.33594 13.3526 1.93125L12.3916 5.50078C12.1924 6.23672 11.5244 6.75 10.7627 6.75H4.00085L4.12741 7.41797C4.17898 7.68281 4.41101 7.875 4.68055 7.875H11.4377C11.7494 7.875 12.0002 8.12578 12.0002 8.4375C12.0002 8.74922 11.7494 9 11.4377 9H4.68055C3.8696 9 3.17349 8.42344 3.02349 7.62891L1.81409 1.27734C1.79769 1.18828 1.72034 1.125 1.62893 1.125H0.562509C0.250785 1.125 0 0.874219 0 0.5625ZM3.00005 10.875C3.00005 10.7273 3.02915 10.581 3.08569 10.4445C3.14222 10.308 3.22509 10.184 3.32956 10.0795C3.43403 9.97504 3.55805 9.89217 3.69454 9.83564C3.83104 9.7791 3.97733 9.75 4.12507 9.75C4.27281 9.75 4.4191 9.7791 4.55559 9.83564C4.69209 9.89217 4.81611 9.97504 4.92058 10.0795C5.02504 10.184 5.10791 10.308 5.16445 10.4445C5.22099 10.581 5.25009 10.7273 5.25009 10.875C5.25009 11.0227 5.22099 11.169 5.16445 11.3055C5.10791 11.442 5.02504 11.566 4.92058 11.6705C4.81611 11.775 4.69209 11.8578 4.55559 11.9144C4.4191 11.9709 4.27281 12 4.12507 12C3.97733 12 3.83104 11.9709 3.69454 11.9144C3.55805 11.8578 3.43403 11.775 3.32956 11.6705C3.22509 11.566 3.14222 11.442 3.08569 11.3055C3.02915 11.169 3.00005 11.0227 3.00005 10.875ZM10.8752 9.75C11.1736 9.75 11.4597 9.86853 11.6707 10.0795C11.8817 10.2905 12.0002 10.5766 12.0002 10.875C12.0002 11.1734 11.8817 11.4595 11.6707 11.6705C11.4597 11.8815 11.1736 12 10.8752 12C10.5768 12 10.2907 11.8815 10.0797 11.6705C9.86869 11.4595 9.75016 11.1734 9.75016 10.875C9.75016 10.5766 9.86869 10.2905 10.0797 10.0795C10.2907 9.86853 10.5768 9.75 10.8752 9.75ZM5.90635 3.75C5.90635 4.00781 6.11729 4.21875 6.37511 4.21875H7.40637V5.25C7.40637 5.50781 7.61731 5.71875 7.87513 5.71875C8.13295 5.71875 8.34389 5.50781 8.34389 5.25V4.21875H9.37516C9.63297 4.21875 9.84391 4.00781 9.84391 3.75C9.84391 3.49219 9.63297 3.28125 9.37516 3.28125H8.34389V2.25C8.34389 1.99219 8.13295 1.78125 7.87513 1.78125C7.61731 1.78125 7.40637 1.99219 7.40637 2.25V3.28125H6.37511C6.11729 3.28125 5.90635 3.49219 5.90635 3.75Z" fill="#FCFCFC"/>
</svg>
