<svg width="14" height="12" viewBox="0 0 14 12" fill="none" xmlns="http://www.w3.org/2000/svg">
<path d="M5.6668 11.3335H3.00013C2.81124 11.3335 2.6528 11.2695 2.5248 11.1415C2.39724 11.0139 2.33346 10.8557 2.33346 10.6668V6.00013H1.20013C1.04457 6.00013 0.939019 5.92791 0.883464 5.78346C0.827908 5.63902 0.861241 5.5168 0.983463 5.4168L6.55013 0.40013C6.67235 0.277908 6.82235 0.216797 7.00013 0.216797C7.17791 0.216797 7.32791 0.277908 7.45013 0.40013L9.6668 2.40013V1.33346C9.6668 1.14457 9.7308 0.98613 9.8588 0.85813C9.98635 0.730575 10.1446 0.666797 10.3335 0.666797H11.0001C11.189 0.666797 11.3472 0.730575 11.4748 0.85813C11.6028 0.98613 11.6668 1.14457 11.6668 1.33346V4.20013L13.0168 5.4168C13.139 5.5168 13.1724 5.63902 13.1168 5.78346C13.0612 5.92791 12.9557 6.00013 12.8001 6.00013H11.6668V10.6668C11.6668 10.8557 11.6028 11.0139 11.4748 11.1415C11.3472 11.2695 11.189 11.3335 11.0001 11.3335H8.33346V8.00013C8.33346 7.81124 8.26969 7.6528 8.14213 7.5248C8.01413 7.39724 7.85569 7.33346 7.6668 7.33346H6.33346C6.14458 7.33346 5.98635 7.39724 5.8588 7.5248C5.7308 7.6528 5.6668 7.81124 5.6668 8.00013V11.3335ZM5.6668 4.68346H8.33346C8.33346 4.32791 8.20013 4.03613 7.93346 3.80813C7.6668 3.58057 7.35569 3.4668 7.00013 3.4668C6.64458 3.4668 6.33346 3.58057 6.0668 3.80813C5.80013 4.03613 5.6668 4.32791 5.6668 4.68346Z" fill="#FCFCFC"/>
</svg>
