<svg width="16" height="16" viewBox="0 0 16 16" fill="none" xmlns="http://www.w3.org/2000/svg">
<path fill-rule="evenodd" clip-rule="evenodd" d="M4.9765 0.710992C5.7585 0.674992 6.00784 0.666992 7.99984 0.666992C9.99184 0.666992 10.2412 0.675659 11.0225 0.710992C11.8038 0.746326 12.3372 0.870992 12.8038 1.05166C13.2925 1.23633 13.7358 1.52499 14.1025 1.89833C14.4758 2.26433 14.7638 2.70699 14.9478 3.19633C15.1292 3.66299 15.2532 4.19633 15.2892 4.97633C15.3252 5.75966 15.3332 6.00899 15.3332 8.00033C15.3332 9.99233 15.3245 10.2417 15.2892 11.0237C15.2538 11.8037 15.1292 12.337 14.9478 12.8037C14.7638 13.2931 14.4754 13.7365 14.1025 14.103C13.7358 14.4763 13.2925 14.7643 12.8038 14.9483C12.3372 15.1297 11.8038 15.2537 11.0238 15.2897C10.2412 15.3257 9.99184 15.3337 7.99984 15.3337C6.00784 15.3337 5.7585 15.325 4.9765 15.2897C4.1965 15.2543 3.66317 15.1297 3.1965 14.9483C2.70712 14.7643 2.26372 14.4758 1.89717 14.103C1.52409 13.7368 1.23538 13.2936 1.05117 12.8043C0.870504 12.3377 0.746504 11.8043 0.710504 11.0243C0.674504 10.241 0.666504 9.99166 0.666504 8.00033C0.666504 6.00833 0.675171 5.75899 0.710504 4.97766C0.745837 4.19633 0.870504 3.66299 1.05117 3.19633C1.23565 2.70705 1.52458 2.26387 1.89784 1.89766C2.26386 1.52466 2.70682 1.23595 3.19584 1.05166C3.6625 0.870992 4.1965 0.746992 4.9765 0.710992ZM10.9632 2.03099C10.1898 1.99566 9.95784 1.98833 7.99984 1.98833C6.04184 1.98833 5.80984 1.99566 5.0365 2.03099C4.32117 2.06366 3.93317 2.18299 3.6745 2.28366C3.3325 2.41699 3.08784 2.57499 2.83117 2.83166C2.58787 3.06836 2.40062 3.35651 2.28317 3.67499C2.1825 3.93366 2.06317 4.32166 2.0305 5.03699C1.99517 5.81033 1.98784 6.04233 1.98784 8.00033C1.98784 9.95833 1.99517 10.1903 2.0305 10.9637C2.06317 11.679 2.1825 12.067 2.28317 12.3257C2.4005 12.6437 2.58784 12.9323 2.83117 13.169C3.06784 13.4123 3.3565 13.5997 3.6745 13.717C3.93317 13.8177 4.32117 13.937 5.0365 13.9697C5.80984 14.005 6.04117 14.0123 7.99984 14.0123C9.9585 14.0123 10.1898 14.005 10.9632 13.9697C11.6785 13.937 12.0665 13.8177 12.3252 13.717C12.6672 13.5837 12.9118 13.4257 13.1685 13.169C13.4118 12.9323 13.5992 12.6437 13.7165 12.3257C13.8172 12.067 13.9365 11.679 13.9692 10.9637C14.0045 10.1903 14.0118 9.95833 14.0118 8.00033C14.0118 6.04233 14.0045 5.81033 13.9692 5.03699C13.9365 4.32166 13.8172 3.93366 13.7165 3.67499C13.5832 3.33299 13.4252 3.08833 13.1685 2.83166C12.9318 2.58837 12.6436 2.40113 12.3252 2.28366C12.0665 2.18299 11.6785 2.06366 10.9632 2.03099ZM7.06317 10.261C7.58628 10.4787 8.16876 10.5081 8.71112 10.3441C9.25349 10.1801 9.7221 9.83294 10.0369 9.36182C10.3517 8.89071 10.4932 8.32491 10.4372 7.76106C10.3812 7.19722 10.1312 6.67031 9.72984 6.27033C9.474 6.01464 9.16465 5.81887 8.82406 5.69709C8.48347 5.57531 8.12012 5.53057 7.76017 5.56607C7.40021 5.60157 7.05261 5.71644 6.74237 5.90241C6.43214 6.08838 6.167 6.34082 5.96604 6.64156C5.76508 6.9423 5.6333 7.28385 5.58018 7.64163C5.52707 7.99941 5.55394 8.36452 5.65886 8.71067C5.76379 9.05682 5.94416 9.3754 6.18698 9.64347C6.42981 9.91155 6.72905 10.1224 7.06317 10.261ZM5.3345 5.33499C5.68452 4.98498 6.10005 4.70733 6.55737 4.5179C7.01469 4.32847 7.50484 4.23097 7.99984 4.23097C8.49484 4.23097 8.98499 4.32847 9.44231 4.5179C9.89962 4.70733 10.3152 4.98498 10.6652 5.33499C11.0152 5.68501 11.2928 6.10054 11.4823 6.55786C11.6717 7.01518 11.7692 7.50533 11.7692 8.00033C11.7692 8.49532 11.6717 8.98548 11.4823 9.44279C11.2928 9.90011 11.0152 10.3156 10.6652 10.6657C9.95828 11.3725 8.99953 11.7697 7.99984 11.7697C7.00014 11.7697 6.04139 11.3725 5.3345 10.6657C4.62761 9.95877 4.23049 9.00002 4.23049 8.00033C4.23049 7.00063 4.62761 6.04188 5.3345 5.33499ZM12.6052 4.79233C12.6919 4.71051 12.7613 4.61211 12.8094 4.50297C12.8574 4.39384 12.883 4.27617 12.8848 4.15695C12.8865 4.03772 12.8643 3.91936 12.8195 3.80887C12.7747 3.69837 12.7081 3.598 12.6238 3.51368C12.5395 3.42937 12.4391 3.36283 12.3286 3.318C12.2181 3.27318 12.0998 3.25098 11.9806 3.25271C11.8613 3.25445 11.7437 3.28009 11.6345 3.32812C11.5254 3.37615 11.427 3.44559 11.3452 3.53233C11.186 3.70101 11.0989 3.92507 11.1023 4.15695C11.1057 4.38882 11.1993 4.61024 11.3633 4.77422C11.5273 4.9382 11.7487 5.03181 11.9806 5.03519C12.2124 5.03857 12.4365 4.95145 12.6052 4.79233Z" fill="url(#paint0_radial_320_2138)"/>
<defs>
<radialGradient id="paint0_radial_320_2138" cx="0" cy="0" r="1" gradientUnits="userSpaceOnUse" gradientTransform="translate(0.998535 15.0004) rotate(-45) scale(19.799)">
<stop stop-color="#FDF497"/>
<stop offset="0.0564829" stop-color="#FDF497"/>
<stop offset="0.445737" stop-color="#FD5949"/>
<stop offset="0.557294" stop-color="#D6249F"/>
<stop offset="0.903778" stop-color="#2854EB"/>
</radialGradient>
</defs>
</svg>
