<svg width="99" height="60" viewBox="0 0 99 60" fill="none" xmlns="http://www.w3.org/2000/svg">
<rect x="0.63623" width="98.1818" height="60" rx="4" fill="white"/>
<g clip-path="url(#clip0_320_5833)">
<path d="M34.734 48.184V45.7597C34.734 44.8323 34.1691 44.2251 33.1994 44.2251C32.7146 44.2251 32.1873 44.3851 31.8249 44.9124C31.5424 44.4699 31.1376 44.2251 30.5303 44.2251C30.1255 44.2251 29.7207 44.3475 29.4006 44.79V44.3051H28.5532V48.184H29.4006V46.0421C29.4006 45.3549 29.763 45.0301 30.3279 45.0301C30.8928 45.0301 31.1752 45.3925 31.1752 46.0421V48.184H32.0226V46.0421C32.0226 45.3549 32.4274 45.0301 32.9499 45.0301C33.5148 45.0301 33.7973 45.3925 33.7973 46.0421V48.184H34.734ZM47.3027 44.3051H45.9282V43.133H45.0809V44.3051H44.3136V45.0724H45.0809V46.8518C45.0809 47.7415 45.4433 48.264 46.413 48.264C46.7755 48.264 47.1804 48.1416 47.4628 47.9816L47.218 47.2519C46.9732 47.412 46.6908 47.4544 46.4884 47.4544C46.0835 47.4544 45.9235 47.2096 45.9235 46.8094V45.0724H47.298V44.3051H47.3027ZM54.4956 44.2204C54.0108 44.2204 53.686 44.4652 53.4835 44.7853V44.3004H52.6362V48.1793H53.4835V45.9951C53.4835 45.3502 53.766 44.983 54.2932 44.983C54.4533 44.983 54.6557 45.0253 54.8204 45.063L55.0652 44.2533C54.8958 44.2204 54.6557 44.2204 54.4956 44.2204ZM43.6263 44.6252C43.2214 44.3428 42.6566 44.2204 42.0493 44.2204C41.0796 44.2204 40.4347 44.7052 40.4347 45.4726C40.4347 46.1175 40.9195 46.4846 41.7669 46.6023L42.1717 46.6447C42.6142 46.7247 42.859 46.8471 42.859 47.0495C42.859 47.332 42.5342 47.5344 41.9693 47.5344C41.4044 47.5344 40.9572 47.332 40.6747 47.1296L40.2699 47.7745C40.7124 48.0993 41.3197 48.2593 41.9269 48.2593C43.0567 48.2593 43.7063 47.7321 43.7063 47.0072C43.7063 46.3199 43.1791 45.9574 42.3741 45.835L41.9693 45.7927C41.6068 45.7503 41.3244 45.6703 41.3244 45.4302C41.3244 45.1477 41.6068 44.9877 42.054 44.9877C42.5389 44.9877 43.0237 45.1901 43.2685 45.3125L43.6263 44.6252ZM66.1699 44.2204C65.6851 44.2204 65.3603 44.4652 65.1579 44.7853V44.3004H64.3105V48.1793H65.1579V45.9951C65.1579 45.3502 65.4403 44.983 65.9675 44.983C66.1276 44.983 66.33 45.0253 66.4948 45.063L66.7395 44.2628C66.5748 44.2204 66.3347 44.2204 66.1699 44.2204ZM55.343 46.2446C55.343 47.4167 56.1526 48.264 57.4048 48.264C57.9697 48.264 58.3745 48.1416 58.7794 47.8215L58.3745 47.1343C58.0497 47.379 57.7296 47.4967 57.3624 47.4967C56.6751 47.4967 56.1903 47.0119 56.1903 46.2446C56.1903 45.5149 56.6751 45.0301 57.3624 44.9924C57.7249 44.9924 58.0497 45.1148 58.3745 45.3549L58.7794 44.6676C58.3745 44.3428 57.9697 44.2251 57.4048 44.2251C56.1526 44.2204 55.343 45.0724 55.343 46.2446ZM63.1808 46.2446V44.3051H62.3334V44.79C62.051 44.4275 61.6461 44.2251 61.1189 44.2251C60.0268 44.2251 59.1795 45.0724 59.1795 46.2446C59.1795 47.4167 60.0268 48.264 61.1189 48.264C61.6838 48.264 62.0886 48.0616 62.3334 47.6991V48.184H63.1808V46.2446ZM60.0692 46.2446C60.0692 45.5573 60.5117 44.9924 61.2413 44.9924C61.9286 44.9924 62.4135 45.5196 62.4135 46.2446C62.4135 46.9318 61.9286 47.4967 61.2413 47.4967C60.5164 47.4544 60.0692 46.9271 60.0692 46.2446ZM49.9295 44.2204C48.7997 44.2204 47.99 45.0301 47.99 46.2399C47.99 47.4544 48.7997 48.2593 49.9718 48.2593C50.5367 48.2593 51.1016 48.0993 51.5488 47.7321L51.144 47.1248C50.8192 47.3696 50.4143 47.5297 50.0142 47.5297C49.487 47.5297 48.9644 47.2849 48.8421 46.6023H51.7089C51.7089 46.4799 51.7089 46.3999 51.7089 46.2775C51.7465 45.0301 51.0169 44.2204 49.9295 44.2204ZM49.9295 44.95C50.4567 44.95 50.8192 45.2748 50.8992 45.8774H48.8797C48.9597 45.3549 49.3222 44.95 49.9295 44.95ZM70.9809 46.2446V42.7705H70.1336V44.79C69.8511 44.4275 69.4463 44.2251 68.9191 44.2251C67.8269 44.2251 66.9796 45.0724 66.9796 46.2446C66.9796 47.4167 67.8269 48.264 68.9191 48.264C69.4839 48.264 69.8888 48.0616 70.1336 47.6991V48.184H70.9809V46.2446ZM67.8693 46.2446C67.8693 45.5573 68.3118 44.9924 69.0415 44.9924C69.7287 44.9924 70.2136 45.5196 70.2136 46.2446C70.2136 46.9318 69.7287 47.4967 69.0415 47.4967C68.3118 47.4544 67.8693 46.9271 67.8693 46.2446ZM39.5026 46.2446V44.3051H38.6553V44.79C38.3728 44.4275 37.968 44.2251 37.4408 44.2251C36.3487 44.2251 35.5013 45.0724 35.5013 46.2446C35.5013 47.4167 36.3487 48.264 37.4408 48.264C38.0057 48.264 38.4105 48.0616 38.6553 47.6991V48.184H39.5026V46.2446ZM36.3534 46.2446C36.3534 45.5573 36.7959 44.9924 37.5255 44.9924C38.2128 44.9924 38.6976 45.5196 38.6976 46.2446C38.6976 46.9318 38.2128 47.4967 37.5255 47.4967C36.7959 47.4544 36.3534 46.9271 36.3534 46.2446Z" fill="black"/>
<path d="M56.0725 14.8467H43.3438V37.7152H56.0725V14.8467Z" fill="#FF5A00"/>
<path d="M44.1907 26.2802C44.1907 21.634 46.3749 17.5103 49.7266 14.846C47.2599 12.9065 44.1483 11.7344 40.7543 11.7344C32.7141 11.7344 26.2085 18.24 26.2085 26.2802C26.2085 34.3204 32.7141 40.826 40.7543 40.826C44.1483 40.826 47.2599 39.6539 49.7266 37.7145C46.3702 35.0877 44.1907 30.9264 44.1907 26.2802Z" fill="#EB001B"/>
<path d="M73.2447 26.2802C73.2447 34.3204 66.7391 40.826 58.6988 40.826C55.3048 40.826 52.1932 39.6539 49.7266 37.7145C53.1206 35.0454 55.2624 30.9264 55.2624 26.2802C55.2624 21.634 53.0782 17.5103 49.7266 14.846C52.1885 12.9065 55.3001 11.7344 58.6941 11.7344C66.7391 11.7344 73.2447 18.2824 73.2447 26.2802Z" fill="#F79E1B"/>
</g>
<defs>
<clipPath id="clip0_320_5833">
<rect width="47.0362" height="36.5293" fill="white" transform="translate(26.209 11.7354)"/>
</clipPath>
</defs>
</svg>
