<svg width="99" height="60" viewBox="0 0 99 60" fill="none" xmlns="http://www.w3.org/2000/svg">
<rect x="0.272461" width="98.1818" height="60" rx="4" fill="white"/>
<g clip-path="url(#clip0_320_5840)">
<path d="M14.9739 43.4865L14.8489 44.4656C14.8358 44.5707 14.8437 44.6773 14.872 44.7793C14.9003 44.8813 14.9485 44.9767 15.0139 45.06C15.0792 45.1433 15.1604 45.2128 15.2528 45.2645C15.3452 45.3163 15.4468 45.3492 15.552 45.3614H47.3789C47.4856 45.3628 47.5915 45.3432 47.6906 45.3036C47.7897 45.264 47.8801 45.2053 47.9565 45.1309C48.0329 45.0564 48.0939 44.9676 48.136 44.8695C48.1781 44.7715 48.2005 44.6661 48.2018 44.5594C48.2045 44.5265 48.2045 44.4934 48.2018 44.4604L48.0716 43.4813C48.0351 43.1149 48.145 42.7489 48.3771 42.4631C48.6093 42.1772 48.945 41.9947 49.3111 41.9553C49.4907 41.9358 49.6723 41.9518 49.8456 42.0025C50.019 42.0532 50.1806 42.1375 50.3214 42.2507C50.4621 42.3639 50.5792 42.5037 50.6659 42.6621C50.7526 42.8205 50.8072 42.9945 50.8267 43.174L50.9517 44.1271C51.1965 46.2468 49.9934 48.1113 47.8268 48.1113H15.2031C13.0573 48.1113 11.8594 46.2468 12.1042 44.1271L12.2292 43.174C12.2474 42.9954 12.3007 42.8222 12.386 42.6642C12.4713 42.5062 12.5869 42.3666 12.7262 42.2534C12.8656 42.1402 13.0259 42.0555 13.198 42.0044C13.3701 41.9533 13.5506 41.9366 13.7292 41.9553C14.0957 41.996 14.4314 42.1796 14.6635 42.4663C14.8956 42.7529 15.0052 43.1195 14.9687 43.4865" fill="#FF0000"/>
<path d="M44.2957 36.1273C44.984 36.1643 45.6589 35.9268 46.1724 35.467C46.686 35.0072 46.9962 34.3625 47.0352 33.6743C47.0377 33.6292 47.0377 33.584 47.0352 33.5389C47.0039 32.0233 45.6238 31.0442 44.0874 31.039H40.9781C40.6328 31.039 40.3016 30.9018 40.0575 30.6576C39.8133 30.4134 39.6761 30.0822 39.6761 29.7369C39.6761 29.3916 39.8133 29.0604 40.0575 28.8162C40.3016 28.5721 40.6328 28.4349 40.9781 28.4349H43.0614C44.4624 28.3776 45.5405 27.5287 45.6082 26.211C45.6759 24.7892 44.4572 23.7267 42.9729 23.7267H37.9314V36.1065H44.2957M48.1133 26.211C48.1155 26.7543 48.0094 27.2925 47.801 27.7942C47.5926 28.2959 47.2863 28.751 46.8998 29.1328L46.8217 29.2213L46.9258 29.2838C47.6875 29.7073 48.3272 30.3198 48.7833 31.0624C49.2394 31.8049 49.4965 32.6524 49.5299 33.5232C49.548 34.8984 49.0216 36.2248 48.0654 37.2132C47.1092 38.2016 45.8009 38.7717 44.4259 38.7991H36.6137C36.2523 38.7936 35.9076 38.6454 35.6549 38.3869C35.4022 38.1284 35.262 37.7804 35.2648 37.4189V22.5601C35.262 22.3778 35.2958 22.1969 35.3641 22.0279C35.4324 21.8589 35.5338 21.7053 35.6625 21.5761C35.7911 21.447 35.9444 21.3449 36.1131 21.276C36.2819 21.2071 36.4627 21.1726 36.645 21.1747H42.9729C44.2986 21.1383 45.5847 21.6296 46.5485 22.5407C47.5123 23.4518 48.0751 24.7082 48.1133 26.0339V26.2058" fill="#1D1D1B"/>
<path d="M23.406 33.7164L23.4425 33.8205L23.4789 33.7164C23.8331 32.7372 24.2653 31.6331 24.7185 30.4717C25.1716 29.3103 25.6559 28.0395 26.1194 26.9041C26.583 25.7687 27.0361 24.7271 27.4631 23.8313C27.7443 23.1702 28.0934 22.5401 28.5048 21.9512C28.7052 21.7022 28.9603 21.5028 29.2502 21.3682C29.5401 21.2336 29.8571 21.1676 30.1766 21.1751H30.4943C30.8554 21.1601 31.2101 21.2746 31.4942 21.4981C31.7124 21.6789 31.8538 21.9357 31.8901 22.2168L33.8744 37.5808C33.8824 37.7509 33.8567 37.9208 33.7986 38.0809C33.7404 38.2409 33.6511 38.3878 33.5358 38.5131C33.2672 38.7379 32.9218 38.8499 32.5723 38.8255C32.2155 38.8456 31.8625 38.7426 31.5724 38.5339C31.4442 38.4463 31.3364 38.3322 31.2564 38.1991C31.1764 38.0661 31.126 37.9174 31.1088 37.7631C31.0411 37.2423 30.9838 36.685 30.9213 36.06C30.8588 35.435 30.5255 32.7633 30.437 32.081C30.3484 31.3987 29.8016 27.0499 29.6089 25.4719V25.3365L28.9735 26.6697C28.76 27.1281 28.5256 27.6749 28.2704 28.3155C28.0152 28.9561 27.7496 29.6332 27.5048 30.3519C27.26 31.0706 25.9997 34.5497 25.9997 34.5497C25.8851 34.8673 25.6663 35.508 25.4788 36.1121C25.2913 36.7162 25.0986 37.2318 25.0518 37.3308C24.8369 37.7513 24.4638 38.0693 24.0146 38.2148C23.5653 38.3603 23.0767 38.3215 22.656 38.1068C22.3137 37.9359 22.0346 37.6605 21.8592 37.3204C21.8071 37.2214 21.63 36.6902 21.4269 36.1017C21.2238 35.5132 21.0259 34.8778 20.9061 34.5392C20.9061 34.5392 19.6822 31.0289 19.4062 30.3415C19.1301 29.654 18.8853 28.9509 18.6406 28.3051C18.3958 27.6593 18.1458 27.1176 17.9375 26.6593L17.2969 25.3417V25.4771C17.1042 27.0395 16.5521 31.3935 16.4636 32.0862C16.375 32.7789 16.0521 35.4246 15.9792 36.0444C15.9063 36.6642 15.849 37.2371 15.7865 37.7475C15.7693 37.9017 15.719 38.0505 15.639 38.1835C15.559 38.3165 15.4512 38.4307 15.323 38.5183C15.0342 38.7258 14.6833 38.8287 14.3282 38.8099C13.982 38.8332 13.6403 38.7212 13.3751 38.4974C13.2598 38.3722 13.1705 38.2253 13.1124 38.0652C13.0543 37.9052 13.0285 37.7352 13.0366 37.5652L14.9949 22.2168C15.0403 21.9464 15.1829 21.7019 15.3959 21.5293C15.6749 21.2934 16.0305 21.1675 16.3959 21.1751H16.7135C17.03 21.1673 17.3442 21.2317 17.6321 21.3635C17.9199 21.4952 18.174 21.6909 18.3749 21.9355C18.7883 22.5233 19.1374 23.1536 19.4166 23.8157C19.8436 24.7115 20.2915 25.7357 20.7603 26.8885C21.229 28.0412 21.6977 29.2304 22.1665 30.4561C22.6196 31.6331 23.0466 32.7216 23.4008 33.7007" fill="#1D1D1B"/>
<path d="M19.5208 11.8838H43.6137C45.8844 11.8838 47.0146 13.5869 47.2594 15.8368L47.3635 16.5555C47.4046 16.9275 47.2967 17.3007 47.0634 17.5935C46.8302 17.8862 46.4906 18.0748 46.1188 18.1179C45.7539 18.1469 45.3923 18.0307 45.1125 17.7948C44.8327 17.5588 44.6572 17.2221 44.624 16.8576L44.5199 16.1649C44.4209 15.3107 44.0616 14.6493 43.1918 14.6493H19.9479C19.0781 14.6493 18.7188 15.3107 18.6146 16.1649L18.5209 16.8471C18.4878 17.2122 18.3114 17.5494 18.0302 17.7846C17.7491 18.0199 17.3861 18.1341 17.0209 18.1023C16.8365 18.0816 16.658 18.0247 16.4957 17.935C16.3333 17.8452 16.1902 17.7243 16.0746 17.5792C15.959 17.4341 15.8731 17.2676 15.8219 17.0892C15.7707 16.9109 15.7552 16.7242 15.7762 16.5399L15.8751 15.8211C16.146 13.5764 17.2709 11.8682 19.5208 11.8682" fill="#FF0000"/>
<path d="M62.8523 28.0811C62.6857 28.7217 62.5138 29.4092 62.3315 30.1643C62.1492 30.9195 61.967 31.5966 61.8107 32.2476C61.6545 32.8986 61.4722 33.4923 61.2899 33.9975C61.1925 34.3569 61.0599 34.7058 60.8941 35.0392C60.792 35.2044 60.6457 35.3379 60.4718 35.4244C60.2978 35.5109 60.1031 35.547 59.9097 35.5287C59.7336 35.5243 59.5586 35.4981 59.3889 35.4506C59.2757 35.4164 59.1709 35.3588 59.0812 35.2817C58.9915 35.2046 58.9189 35.1095 58.8681 35.0027C58.7032 34.6545 58.5707 34.2919 58.4723 33.9194C58.316 33.3986 58.1494 32.7632 57.9515 32.0601C57.7536 31.357 57.6025 30.6175 57.4307 29.831C57.2588 29.0446 57.0921 28.3155 56.9567 27.6436C56.8213 26.9718 56.6963 26.3937 56.6026 25.9249C56.5088 25.4562 56.4567 25.1697 56.4411 25.0708C56.4382 25.0309 56.4382 24.9909 56.4411 24.951V24.8833C56.4383 24.7902 56.4575 24.6977 56.4974 24.6135C56.5372 24.5293 56.5965 24.4558 56.6703 24.3989C56.8299 24.2727 57.0295 24.208 57.2328 24.2166C57.416 24.2087 57.5974 24.2558 57.7536 24.3521C57.9038 24.4643 58.0046 24.6305 58.0348 24.8156C58.0348 24.8156 58.0661 25.0083 58.1286 25.3364C58.1911 25.6645 58.2796 26.0551 58.3785 26.5395C58.4775 27.0238 58.5921 27.5811 58.7119 28.1905C58.8317 28.7998 58.9619 29.4196 59.1025 30.0446C59.2431 30.6695 59.3733 31.2685 59.5087 31.857C59.6441 32.4455 59.7639 32.9455 59.8837 33.3674C59.9983 32.9715 60.1285 32.5184 60.2691 32.008C60.4097 31.4976 60.5555 30.9664 60.6962 30.4456C60.8368 29.9248 60.967 29.3571 61.0972 28.8154C61.2274 28.2738 61.3472 27.7738 61.4618 27.2947C61.5763 26.8155 61.6649 26.4145 61.7482 26.0499C61.8315 25.6853 61.894 25.4197 61.9409 25.2426C61.9935 25.0379 62.1103 24.8554 62.2742 24.7218C62.4333 24.5774 62.6377 24.4927 62.8523 24.4823C63.0816 24.4717 63.3071 24.5438 63.4877 24.6854C63.6497 24.817 63.7603 25.0013 63.8002 25.2062C63.9408 25.7739 64.0762 26.4197 64.2273 27.128C64.3783 27.8363 64.5398 28.5498 64.7012 29.2738C64.8627 29.9977 65.0398 30.7112 65.222 31.4091C65.4043 32.107 65.571 32.7215 65.7429 33.258C65.8574 32.8361 65.9876 32.3361 66.123 31.7528C66.2585 31.1695 66.3887 30.5654 66.5293 29.9404C66.6699 29.3154 66.8105 28.7113 66.9355 28.1019C67.0605 27.4926 67.1855 26.9457 67.2897 26.4614C67.3938 25.977 67.4824 25.5812 67.5397 25.2791C67.5969 24.977 67.6386 24.8104 67.6386 24.8C67.6747 24.6185 67.7745 24.456 67.9199 24.3416C68.0755 24.2442 68.2573 24.1969 68.4407 24.2062C68.6453 24.1991 68.8461 24.2636 69.0084 24.3885C69.0812 24.4462 69.1398 24.5199 69.1796 24.6039C69.2193 24.6879 69.2391 24.78 69.2375 24.8729V24.9406C69.24 24.9822 69.24 25.0239 69.2375 25.0656C69.2375 25.1593 69.1698 25.4406 69.0709 25.9197C68.9719 26.3989 68.8521 26.9613 68.7115 27.6332C68.5709 28.305 68.4094 29.0342 68.2375 29.8102C68.0657 30.5862 67.8834 31.3258 67.7167 32.0289C67.5501 32.732 67.3834 33.3517 67.1959 33.883C67.0983 34.2523 66.9658 34.6116 66.8001 34.9558C66.695 35.1745 66.5078 35.343 66.2793 35.4246C66.1113 35.4813 65.9358 35.5129 65.7585 35.5183C65.6874 35.5235 65.616 35.5235 65.5449 35.5183C65.4426 35.5038 65.3416 35.4811 65.2429 35.4506C65.1311 35.4108 65.0258 35.3546 64.9304 35.2839C64.8212 35.2034 64.735 35.0957 64.6804 34.9715C64.5283 34.6132 64.4029 34.2441 64.3054 33.8673C64.1544 33.3465 63.9981 32.7736 63.8263 32.1278C63.6544 31.482 63.4929 30.7945 63.3054 30.0862C63.118 29.3779 62.9877 28.7165 62.8471 28.1019" fill="#1D1D1B"/>
<path d="M72.0659 32.2682C71.8888 32.8306 71.7326 33.3515 71.6024 33.8306C71.4722 34.3097 71.3368 34.7004 71.2222 35.0076C71.1946 35.2148 71.0858 35.4026 70.9197 35.5295C70.7537 35.6565 70.544 35.7123 70.3368 35.6847C70.1296 35.6571 69.9419 35.5483 69.8149 35.3822C69.6879 35.2162 69.6321 35.0065 69.6597 34.7993C69.6587 34.7214 69.6711 34.6439 69.6962 34.5702L69.9149 33.8462C70.0399 33.44 70.2014 32.9348 70.3993 32.3202C70.5972 31.7057 70.8212 31.0495 71.0607 30.3255C71.3003 29.6016 71.5503 28.8829 71.8055 28.1746C72.0607 27.4662 72.3263 26.8048 72.5659 26.1955C72.7659 25.6835 73.0008 25.1858 73.269 24.7059C73.345 24.5319 73.4795 24.3901 73.6492 24.3049C73.8551 24.2266 74.0749 24.1912 74.295 24.2007C74.5213 24.1961 74.7462 24.2368 74.9564 24.3205C75.0438 24.3624 75.122 24.4213 75.1864 24.4937C75.2508 24.5661 75.3001 24.6507 75.3314 24.7424C75.4981 25.0913 75.696 25.5653 75.9199 26.1538C76.1439 26.7423 76.3939 27.3829 76.6439 28.0704C76.8939 28.7579 77.1647 29.4558 77.3938 30.1537C77.623 30.8515 77.8678 31.5286 78.0709 32.1432C78.274 32.7577 78.4511 33.2837 78.5917 33.7056C78.7323 34.1275 78.8313 34.4191 78.8625 34.5493C78.8877 34.6231 78.9 34.7006 78.899 34.7785C78.9043 34.8757 78.8878 34.9729 78.8509 35.0629C78.814 35.153 78.7574 35.2338 78.6854 35.2993C78.603 35.3728 78.5065 35.4287 78.4017 35.4636C78.2969 35.4986 78.1861 35.5117 78.0761 35.5024C77.9141 35.5177 77.7522 35.4712 77.623 35.3722C77.5137 35.2696 77.4329 35.1404 77.3886 34.9972C77.2688 34.6899 77.1334 34.2993 76.972 33.8202C76.8105 33.341 76.6439 32.8202 76.4512 32.2577H72.0503M75.9564 30.7318C75.7064 29.9714 75.4772 29.2735 75.2533 28.6485C75.0293 28.0235 74.8314 27.4246 74.5814 26.8309C74.5241 26.7007 74.4617 26.5548 74.3992 26.3777C74.3367 26.2007 74.295 26.1121 74.2846 26.0809C74.2358 26.1699 74.1973 26.2643 74.17 26.3621C74.1023 26.5496 74.045 26.7007 73.9825 26.8309C73.7481 27.4038 73.5242 28.0079 73.3054 28.6485C73.0867 29.2891 72.8575 29.9818 72.6128 30.7318H75.9564Z" fill="#1D1D1B"/>
<path d="M81.9406 31.0963C81.8796 31.0351 81.8238 30.9689 81.774 30.8983L81.6021 30.6588C81.4355 30.4244 81.2636 30.138 81.0813 29.8046C80.899 29.4713 80.6907 29.1172 80.498 28.763C80.3053 28.4089 80.1178 28.0078 79.9407 27.6276C79.7637 27.2474 79.5866 26.8933 79.446 26.586C79.3053 26.2787 79.1699 25.9714 79.0658 25.7319C78.9875 25.5638 78.9231 25.3896 78.8731 25.2111C78.8528 25.1676 78.8371 25.1223 78.8262 25.0756C78.8262 25.0756 78.8262 25.0079 78.8262 24.9454C78.8256 24.8484 78.8446 24.7522 78.8822 24.6626C78.9198 24.5731 78.9752 24.4922 79.0449 24.4246C79.1269 24.3498 79.2231 24.2923 79.3278 24.2556C79.4325 24.2189 79.5436 24.2038 79.6543 24.2111C79.7488 24.2004 79.8445 24.2108 79.9345 24.2414C80.0245 24.272 80.1067 24.3221 80.1751 24.3882C80.2666 24.4907 80.339 24.6089 80.3886 24.7371L80.5605 25.1225C80.649 25.3204 80.7584 25.5652 80.8834 25.8569C81.0084 26.1485 81.1594 26.4714 81.3261 26.8256C81.4928 27.1797 81.6542 27.5183 81.8469 27.8672L82.3417 28.8411C82.4758 29.1032 82.6254 29.3571 82.7896 29.6015C83.0552 29.1868 83.2969 28.7573 83.5135 28.3151C83.7687 27.7943 84.0343 27.2995 84.2479 26.7943C84.4614 26.2891 84.6853 25.8464 84.8624 25.4663L85.1697 24.7423C85.2212 24.6139 85.2953 24.4957 85.3884 24.3934C85.455 24.3247 85.537 24.2729 85.6275 24.2421C85.7181 24.2113 85.8146 24.2025 85.9093 24.2163C86.02 24.2084 86.1312 24.2232 86.2361 24.2599C86.3409 24.2967 86.437 24.3545 86.5186 24.4298C86.5901 24.496 86.6467 24.5767 86.6844 24.6665C86.7221 24.7564 86.7402 24.8533 86.7373 24.9506C86.7428 24.9939 86.7428 25.0376 86.7373 25.0809L86.6957 25.2163L86.4926 25.7371C86.3936 25.9819 86.2686 26.2579 86.1176 26.5912C85.9665 26.9245 85.8103 27.2735 85.6332 27.6328C85.4561 27.9922 85.2582 28.388 85.0655 28.7682C84.8728 29.1484 84.6801 29.4974 84.4874 29.8098C84.2947 30.1223 84.1124 30.44 83.9666 30.6692C83.8668 30.815 83.7535 30.951 83.6281 31.0754V34.7211C83.6332 34.8273 83.6164 34.9334 83.5788 35.0329C83.5411 35.1323 83.4835 35.223 83.4093 35.2992C83.2602 35.4465 83.0591 35.5291 82.8495 35.5291C82.6399 35.5291 82.4387 35.4465 82.2896 35.2992C82.2097 35.2217 82.1467 35.1284 82.1046 35.0254C82.0624 34.9223 82.0421 34.8116 82.0448 34.7003V31.0546" fill="#1D1D1B"/>
</g>
<defs>
<clipPath id="clip0_320_5840">
<rect width="74.5805" height="36.233" fill="white" transform="translate(12.0732 11.8838)"/>
</clipPath>
</defs>
</svg>
