<svg width="100" height="60" viewBox="0 0 100 60" fill="none" xmlns="http://www.w3.org/2000/svg">
<rect x="0.90918" width="98.1818" height="60" rx="4" fill="white"/>
<g clip-path="url(#clip0_320_5849)">
<path d="M39.5609 23.5537H35.0393C34.7299 23.5537 34.4667 23.7785 34.4185 24.084L32.5897 35.6787C32.5533 35.9074 32.7305 36.1137 32.9626 36.1137H35.1213C35.4307 36.1137 35.6938 35.8889 35.7421 35.5828L36.2353 32.4555C36.2829 32.1494 36.5467 31.9246 36.8555 31.9246H38.2869C41.2654 31.9246 42.9843 30.4833 43.4333 27.6271C43.6356 26.3775 43.4419 25.3957 42.8567 24.7081C42.2141 23.953 41.0743 23.5537 39.5609 23.5537ZM40.0825 27.7884C39.8353 29.4109 38.5956 29.4109 37.3969 29.4109H36.7146L37.1933 26.3808C37.2217 26.1977 37.3804 26.0628 37.5655 26.0628H37.8783C38.6948 26.0628 39.465 26.0628 39.863 26.5283C40.1004 26.8059 40.1731 27.2185 40.0825 27.7884Z" fill="#253B80"/>
<path d="M53.0767 27.7359H50.9114C50.7269 27.7359 50.5676 27.8707 50.5392 28.0539L50.4433 28.6595L50.2919 28.44C49.8232 27.7597 48.7779 27.5322 47.7346 27.5322C45.3419 27.5322 43.2982 29.3445 42.9002 31.8866C42.6933 33.1547 42.9875 34.3673 43.7068 35.2129C44.3667 35.9904 45.3108 36.3144 46.4341 36.3144C48.362 36.3144 49.4311 35.0747 49.4311 35.0747L49.3346 35.6764C49.2982 35.9064 49.4754 36.1127 49.7061 36.1127H51.6565C51.9666 36.1127 52.2284 35.8879 52.2773 35.5818L53.4476 28.1709C53.4846 27.9428 53.3081 27.7359 53.0767 27.7359ZM50.0585 31.9501C49.8496 33.1871 48.8678 34.0175 47.6156 34.0175C46.9868 34.0175 46.4843 33.8159 46.1617 33.4337C45.8417 33.0542 45.72 32.514 45.8219 31.9124C46.0169 30.6859 47.0152 29.8284 48.2483 29.8284C48.8632 29.8284 49.363 30.0327 49.6922 30.4182C50.0222 30.8076 50.1531 31.3511 50.0585 31.9501Z" fill="#253B80"/>
<path d="M64.6088 27.7354H62.4329C62.2253 27.7354 62.0303 27.8385 61.9126 28.0111L58.9116 32.4315L57.6396 28.1836C57.5596 27.9178 57.3143 27.7354 57.0366 27.7354H54.8984C54.6386 27.7354 54.4581 27.9892 54.5408 28.2339L56.9374 35.2673L54.6842 38.4481C54.507 38.6987 54.6855 39.0431 54.9917 39.0431H57.1649C57.3711 39.0431 57.5642 38.9426 57.6812 38.7734L64.9182 28.3271C65.0914 28.0772 64.9136 27.7354 64.6088 27.7354Z" fill="#253B80"/>
<path d="M71.8129 23.5537H67.2906C66.9818 23.5537 66.7187 23.7785 66.6704 24.084L64.8417 35.6787C64.8053 35.9074 64.9825 36.1137 65.2132 36.1137H67.5339C67.7494 36.1137 67.9339 35.9564 67.9676 35.7421L68.4866 32.4555C68.5342 32.1494 68.798 31.9246 69.1068 31.9246H70.5375C73.5166 31.9246 75.235 30.4833 75.6846 27.6271C75.8875 26.3775 75.6925 25.3957 75.1074 24.7081C74.4654 23.953 73.3262 23.5537 71.8129 23.5537ZM72.3345 27.7884C72.0879 29.4109 70.8482 29.4109 69.6489 29.4109H68.9673L69.4466 26.3808C69.475 26.1977 69.6324 26.0628 69.8182 26.0628H70.1309C70.9467 26.0628 71.7176 26.0628 72.1157 26.5283C72.353 26.8059 72.4251 27.2185 72.3345 27.7884Z" fill="#179BD7"/>
<path d="M85.3278 27.7359H83.1638C82.978 27.7359 82.82 27.8707 82.7922 28.0539L82.6964 28.6595L82.5443 28.44C82.0756 27.7597 81.0309 27.5322 79.9876 27.5322C77.5949 27.5322 75.552 29.3445 75.1539 31.8866C74.9477 33.1547 75.2406 34.3673 75.9599 35.2129C76.621 35.9904 77.5638 36.3144 78.6871 36.3144C80.6151 36.3144 81.6841 35.0747 81.6841 35.0747L81.5876 35.6764C81.5513 35.9064 81.7285 36.1127 81.9605 36.1127H83.9103C84.219 36.1127 84.4821 35.8879 84.5304 35.5818L85.7013 28.1709C85.737 27.9428 85.5598 27.7359 85.3278 27.7359ZM82.3096 31.9501C82.102 33.1871 81.1189 34.0175 79.8666 34.0175C79.2392 34.0175 78.7354 33.8159 78.4128 33.4337C78.0928 33.0542 77.9724 32.514 78.0729 31.9124C78.2693 30.6859 79.2663 29.8284 80.4994 29.8284C81.1142 29.8284 81.6141 30.0327 81.9433 30.4182C82.2746 30.8076 82.4055 31.3511 82.3096 31.9501Z" fill="#179BD7"/>
<path d="M87.8806 23.8714L86.0248 35.6784C85.9884 35.9071 86.1656 36.1134 86.3963 36.1134H88.2621C88.5722 36.1134 88.8353 35.8886 88.8829 35.5825L90.713 23.9884C90.7494 23.7597 90.5722 23.5527 90.3414 23.5527H88.2522C88.0677 23.5534 87.9091 23.6883 87.8806 23.8714Z" fill="#179BD7"/>
<path d="M13.8124 38.3669L14.1582 36.1705L13.388 36.1527H9.70996L12.266 19.9457C12.2739 19.8968 12.2997 19.8512 12.3374 19.8188C12.3751 19.7864 12.4233 19.7686 12.4736 19.7686H18.6752C20.734 19.7686 22.1548 20.197 22.8966 21.0426C23.2444 21.4393 23.4659 21.8538 23.573 22.31C23.6854 22.7887 23.6874 23.3606 23.5776 24.0581L23.5697 24.1091V24.556L23.9175 24.753C24.2104 24.9084 24.4431 25.0862 24.6216 25.2899C24.9191 25.6291 25.1115 26.0601 25.1928 26.5712C25.2768 27.0968 25.249 27.7223 25.1115 28.4304C24.9528 29.2449 24.6963 29.9543 24.3499 30.5348C24.0312 31.0697 23.6252 31.5133 23.1433 31.8571C22.6831 32.1838 22.1363 32.4317 21.5181 32.5904C20.9191 32.7464 20.2362 32.8251 19.4871 32.8251H19.0044C18.6593 32.8251 18.3241 32.9494 18.061 33.1722C17.7972 33.3996 17.6226 33.7104 17.5691 34.0502L17.5327 34.2479L16.9218 38.119L16.894 38.2611C16.8868 38.3061 16.8742 38.3286 16.8557 38.3438C16.8392 38.3576 16.8154 38.3669 16.7922 38.3669H13.8124Z" fill="#253B80"/>
<path d="M24.2469 24.1602C24.2284 24.2785 24.2072 24.3995 24.1834 24.5238C23.3656 28.7228 20.5676 30.1734 16.9941 30.1734H15.1746C14.7376 30.1734 14.3693 30.4907 14.3012 30.9218L13.3696 36.8299L13.1058 38.5046C13.0615 38.7876 13.2797 39.0428 13.5653 39.0428H16.7924C17.1746 39.0428 17.4992 38.7651 17.5594 38.3883L17.5911 38.2243L18.1987 34.3684L18.2377 34.1569C18.2972 33.7787 18.6225 33.501 19.0046 33.501H19.4873C22.6139 33.501 25.0614 32.2316 25.7768 28.5582C26.0757 27.0236 25.9209 25.7423 25.1302 24.8411C24.8909 24.5694 24.594 24.344 24.2469 24.1602Z" fill="#179BD7"/>
<path d="M23.391 23.8189C23.266 23.7826 23.1371 23.7495 23.0049 23.7198C22.872 23.6907 22.7358 23.6649 22.5956 23.6424C22.105 23.5631 21.5675 23.5254 20.9916 23.5254H16.1309C16.0112 23.5254 15.8975 23.5525 15.7956 23.6014C15.5715 23.7092 15.4049 23.9214 15.3646 24.1813L14.3305 30.7307L14.3008 30.9218C14.3689 30.4907 14.7371 30.1733 15.1742 30.1733H16.9937C20.5672 30.1733 23.3652 28.7221 24.183 24.5237C24.2075 24.3994 24.228 24.2784 24.2465 24.1601C24.0396 24.0503 23.8154 23.9565 23.5741 23.8765C23.5146 23.8566 23.4531 23.8375 23.391 23.8189Z" fill="#222D65"/>
<path d="M15.3646 24.1811C15.4049 23.9212 15.5716 23.709 15.7957 23.6019C15.8982 23.553 16.0112 23.5259 16.1309 23.5259H20.9917C21.5675 23.5259 22.1051 23.5635 22.5956 23.6429C22.7358 23.6654 22.872 23.6912 23.0049 23.7202C23.1371 23.75 23.266 23.7831 23.391 23.8194C23.4532 23.8379 23.5146 23.8571 23.5748 23.8763C23.8161 23.9563 24.0403 24.0508 24.2472 24.1599C24.4905 22.6082 24.2452 21.5516 23.4062 20.595C22.4813 19.5417 20.8118 19.0908 18.6757 19.0908H12.4741C12.0377 19.0908 11.6655 19.4082 11.598 19.8399L9.0149 36.2135C8.964 36.5374 9.21391 36.8297 9.54052 36.8297H13.3693L14.3306 30.7305L15.3646 24.1811Z" fill="#253B80"/>
</g>
<defs>
<clipPath id="clip0_320_5849">
<rect width="81.9829" height="21.8182" fill="white" transform="translate(9.00879 19.0908)"/>
</clipPath>
</defs>
</svg>
