<svg width="16" height="16" viewBox="0 0 16 16" fill="none" xmlns="http://www.w3.org/2000/svg">
<path d="M7.03583 4.16035L4.7805 1.55701C4.5205 1.25701 4.04383 1.25835 3.74183 1.56101L1.88716 3.41901C1.33516 3.97168 1.17716 4.79235 1.4965 5.45035C3.40424 9.40032 6.58986 12.5904 10.5372 14.5037C11.1945 14.823 12.0145 14.665 12.5665 14.1123L14.4385 12.237C14.7418 11.9337 14.7425 11.4543 14.4398 11.1943L11.8265 8.95101C11.5532 8.71635 11.1285 8.74701 10.8545 9.02168L9.94516 9.93235C9.89861 9.98114 9.83733 10.0133 9.77073 10.0239C9.70413 10.0345 9.6359 10.0229 9.5765 9.99101C8.09013 9.13508 6.85716 7.9005 6.00316 6.41301C5.97118 6.35351 5.9596 6.28516 5.9702 6.21845C5.98079 6.15174 6.01298 6.09034 6.06183 6.04368L6.9685 5.13635C7.24316 4.86035 7.27316 4.43368 7.03583 4.15968V4.16035Z" stroke="#2256F7" stroke-width="1.33333" stroke-linecap="round" stroke-linejoin="round"/>
</svg>
