<svg width="99" height="60" viewBox="0 0 99 60" fill="none" xmlns="http://www.w3.org/2000/svg">
<rect width="98.1818" height="60" rx="4" fill="white"/>
<g clip-path="url(#clip0_320_5825)">
<path d="M45.0042 39.6349H40.0371L43.1439 20.4248H48.1108L45.0042 39.6349Z" fill="#00579F"/>
<path d="M63.0104 20.895C62.0306 20.5063 60.4767 20.0771 58.5552 20.0771C53.65 20.0771 50.1959 22.6929 50.1747 26.4325C50.1339 29.1917 52.6478 30.7242 54.5279 31.6441C56.4496 32.5842 57.1029 33.1978 57.1029 34.0358C57.0833 35.3227 55.55 35.9159 54.1199 35.9159C52.1368 35.9159 51.0743 35.6101 49.4595 34.8941L48.8054 34.5872L48.1104 38.8994C49.2753 39.4302 51.4217 39.9012 53.65 39.9218C58.8619 39.9218 62.255 37.3466 62.2952 33.3613C62.315 31.1745 60.9876 29.4989 58.1258 28.1296C56.3885 27.2507 55.3246 26.658 55.3246 25.7586C55.345 24.9411 56.2245 24.1037 58.1856 24.1037C59.8003 24.0626 60.9868 24.4508 61.8856 24.8392L62.3348 25.0432L63.0104 20.895Z" fill="#00579F"/>
<path d="M69.6117 32.8295C70.0208 31.7259 71.5948 27.4546 71.5948 27.4546C71.5742 27.4956 72.0031 26.3307 72.2483 25.6155L72.5955 27.2707C72.5955 27.2707 73.5361 31.869 73.7403 32.8295C72.9641 32.8295 70.5928 32.8295 69.6117 32.8295ZM75.743 20.4248H71.9009C70.7161 20.4248 69.816 20.7719 69.3048 22.0187L61.9268 39.6347H67.1386C67.1386 39.6347 67.9967 37.2637 68.1811 36.753C68.7528 36.753 73.8229 36.753 74.5585 36.753C74.7011 37.4275 75.1511 39.6347 75.1511 39.6347H79.7502L75.743 20.4248Z" fill="#00579F"/>
<path d="M35.8879 20.4248L31.0234 33.5243L30.4919 30.8676C29.5926 27.802 26.772 24.4714 23.6245 22.8153L28.0802 39.6146H33.3328L41.1402 20.4248H35.8879Z" fill="#00579F"/>
<path d="M26.5065 20.4248H18.5149L18.4331 20.813C24.6671 22.4071 28.7957 26.2497 30.492 30.8684L28.7547 22.0396C28.4687 20.8127 27.5897 20.4653 26.5065 20.4248Z" fill="#FAA61A"/>
</g>
<defs>
<clipPath id="clip0_320_5825">
<rect width="61.3172" height="19.8446" fill="white" transform="translate(18.4326 20.0781)"/>
</clipPath>
</defs>
</svg>
